<svg xmlns="http://www.w3.org/2000/svg" viewBox="0 0 560 400" fill="none">
  <defs>
    <linearGradient id="globe" x1="0" y1="0" x2="560" y2="400">
      <stop stop-color="#3d9aab" stop-opacity="0.35"/>
      <stop offset="1" stop-color="#2a7b8c" stop-opacity="0.15"/>
    </linearGradient>
  </defs>
  <ellipse cx="280" cy="200" rx="220" ry="160" fill="url(#globe)"/>
  <ellipse cx="280" cy="200" rx="220" ry="160" stroke="#fff" stroke-opacity="0.2" stroke-width="2"/>
  <path d="M120 200 Q280 120 440 200 Q280 280 120 200" stroke="#fff" stroke-opacity="0.15" fill="none"/>
  <path d="M60 200 H500" stroke="#fff" stroke-opacity="0.1"/>
  <path d="M280 40 Q380 200 280 360 Q180 200 280 40" stroke="#fff" stroke-opacity="0.12" fill="none"/>
  <!-- Figures -->
  <circle cx="160" cy="240" r="28" fill="#e8b87a"/>
  <rect x="132" y="268" width="56" height="70" rx="12" fill="#fff" fill-opacity="0.9"/>
  <circle cx="400" cy="250" r="26" fill="#f4c99a"/>
  <rect x="374" y="276" width="52" height="62" rx="12" fill="#2a7b8c"/>
  <circle cx="280" cy="130" r="24" fill="#fff" fill-opacity="0.85"/>
  <rect x="256" y="154" width="48" height="55" rx="10" fill="#c17f3a" fill-opacity="0.85"/>
  <circle cx="320" cy="300" r="22" fill="#dceeea"/>
  <rect x="298" y="322" width="44" height="48" rx="10" fill="#236570"/>
  <circle cx="280" cy="175" r="18" fill="#e8b87a" fill-opacity="0.9"/>
</svg>
